<svg id="Page-1" xmlns="http://www.w3.org/2000/svg" width="69.4" height="57" viewBox="0 0 69.4 57">
  <g id="Dribbble-Light-Preview">
    <g id="icons">
      <path id="github-_142_" data-name="github-[#142]" d="M118.7,7398.992c19.165,0,34.7,13.086,34.7,29.219,0,12.906-9.931,23.852-23.711,27.727-1.759.289-2.384-.625-2.384-1.4,0-.969.042-4.1.042-8.031a6.43,6.43,0,0,0-2.356-5.391c7.728-.742,15.847-3.187,15.847-14.422a10.32,10.32,0,0,0-3.574-7.836,9,9,0,0,0-.34-7.75s-2.908-.773-9.532,2.992a39.45,39.45,0,0,0-17.378,0c-6.631-3.766-9.546-2.992-9.546-2.992a9.031,9.031,0,0,0-.337,7.75,10.356,10.356,0,0,0-3.574,7.836c0,11.2,8.1,13.711,15.809,14.453a5.812,5.812,0,0,0-2.2,3.906c-1.978.742-7,2.016-10.1-2.453a7.262,7.262,0,0,0-5.319-2.992s-3.383-.062-.236,1.766a8.36,8.36,0,0,1,3.852,4.273s2.037,5.219,11.69,3.453c.017,2.445.049,4.758.049,5.438,0,.773-.639,1.688-2.37,1.4C93.942,7452.086,84,7441.117,84,7428.211c0-16.133,15.539-29.219,34.7-29.219" transform="translate(-84 -7398.992)" fill-rule="evenodd"/>
    </g>
  </g>
</svg>
