<svg id="postman-icon" xmlns="http://www.w3.org/2000/svg" width="160" height="142.185" viewBox="0 0 160 142.185">
  <path id="Path_3" data-name="Path 3" d="M127.193,62.681C131.662,32.208,106.954,4.348,72.03.455S4.992,18.083.522,48.5s20.239,58.334,55.163,62.282C90.673,114.676,122.661,93.155,127.193,62.681Z" transform="translate(16.142 15.474)" fill="#ff6c37"/>
  <g id="Group_1" data-name="Group 1" transform="translate(0 0)">
    <path id="Path_4" data-name="Path 4" d="M124.018,36.985,70.012,90.992,54.783,75.762c53.11-53.11,58.357-48.5,69.235-38.777Z" transform="translate(-0.171 -5.24)" fill="#fff"/>
    <path id="Path_5" data-name="Path 5" d="M70.012,92.271a1.162,1.162,0,0,1-.9-.384L53.759,76.658a1.237,1.237,0,0,1,0-1.792C107.765,20.86,113.4,25.979,124.786,36.217a1.237,1.237,0,0,1,0,1.792L70.78,91.887A.912.912,0,0,1,70.012,92.271ZM56.575,75.762,70.012,89.2,122.1,37.113c-9.47-8.447-15.869-11.006-65.524,38.649Z" transform="translate(-0.172 -5.161)" fill="#ff6c37"/>
    <path id="Path_6" data-name="Path 6" d="M85.5,106.477,70.78,91.759l54.006-54.006C139.248,52.343,117.62,76.018,85.5,106.477Z" transform="translate(-0.198 -7.014)" fill="#fff"/>
    <path id="Path_7" data-name="Path 7" d="M85.5,107.757a1.162,1.162,0,0,1-.9-.384L69.884,92.655a1.08,1.08,0,0,1-.256-.9,1.162,1.162,0,0,1,.384-.9l54.006-54.006a1.237,1.237,0,0,1,1.792,0,15.578,15.578,0,0,1,4.991,11.9c-.256,14.205-16.381,32.25-44.28,58.614a2.042,2.042,0,0,1-1.024.384Zm-12.926-16c8.19,8.319,11.646,11.646,12.926,12.925,21.5-20.476,42.361-41.464,42.489-55.926a13.632,13.632,0,0,0-3.328-9.214Z" transform="translate(-0.2 -6.974)" fill="#ff6c37"/>
    <path id="Path_8" data-name="Path 8" d="M55.039,76.146,65.917,87.024a.48.48,0,0,1,0,.768c-.128.128-.128.128-.256.128L43.137,92.783a2.24,2.24,0,0,1-2.431-1.792,1.892,1.892,0,0,1,.512-1.664L54.271,76.274C54.527,76.018,54.911,75.89,55.039,76.146Z" transform="translate(-0.086 -8.962)" fill="#fff"/>
    <path id="Path_9" data-name="Path 9" d="M42.753,94.063a3.335,3.335,0,0,1-3.327-3.455,3.5,3.5,0,0,1,1.024-2.432L53.5,75.122a1.946,1.946,0,0,1,2.559,0L66.941,86a1.708,1.708,0,0,1,0,2.559,2.061,2.061,0,0,1-.9.512L43.521,93.935c-.256,0-.512.128-.768.128Zm11.9-16.509L42.113,90.1a.775.775,0,0,0-.128,1.024.661.661,0,0,0,.9.384L64,86.9Z" transform="translate(-0.085 -8.967)" fill="#ff6c37"/>
    <path id="Path_10" data-name="Path 10" d="M152.557,7.039A20.728,20.728,0,1,0,148.974,39.8L134.385,25.212Z" transform="translate(-0.284 0)" fill="#fff"/>
    <path id="Path_11" data-name="Path 11" d="M138.224,44.024A22.012,22.012,0,1,1,153.453,6.143a1.237,1.237,0,0,1,0,1.792L136.176,25.212l13.566,13.566a1.237,1.237,0,0,1,0,1.792l-.256.256A21.709,21.709,0,0,1,138.224,44.024Zm0-41.337A19.255,19.255,0,0,0,118.9,22.14a19.255,19.255,0,0,0,19.453,19.325,18.4,18.4,0,0,0,8.574-2.048l-13.437-13.31a1.237,1.237,0,0,1,0-1.792L150.638,7.167a18.968,18.968,0,0,0-12.414-4.479Z" transform="translate(-0.284 0)" fill="#ff6c37"/>
    <path id="Path_12" data-name="Path 12" d="M152.941,7.423l-.256-.256-18.3,18.045,14.461,14.461a23.428,23.428,0,0,0,3.967-3.071,20.508,20.508,0,0,0,.128-29.179Z" transform="translate(-0.284 0)" fill="#fff"/>
    <path id="Path_13" data-name="Path 13" d="M148.974,41.081a1.162,1.162,0,0,1-.9-.384L133.489,26.107a1.237,1.237,0,0,1,0-1.792L151.661,6.143a1.238,1.238,0,0,1,1.792,0l.384.256a22.13,22.13,0,0,1,.128,31.1,21.029,21.029,0,0,1-4.223,3.327,5.034,5.034,0,0,1-.768.256Zm-12.8-15.869L149.1,38.137a16.884,16.884,0,0,0,2.815-2.3,19.488,19.488,0,0,0,.64-26.875Z" transform="translate(-0.284 0)" fill="#ff6c37"/>
    <path id="Path_14" data-name="Path 14" d="M126.194,39.289a7.879,7.879,0,0,0-11.134,0L66.813,87.536,74.875,95.6l51.063-44.792a7.892,7.892,0,0,0,.768-11.134,1.765,1.765,0,0,1-.512-.384Z" transform="translate(-0.193 -6.179)" fill="#fff"/>
    <path id="Path_15" data-name="Path 15" d="M74.747,96.879a1.162,1.162,0,0,1-.9-.384l-8.063-8.062a1.237,1.237,0,0,1,0-1.792l48.247-48.247a9.14,9.14,0,1,1,12.926,12.926l-.384.384L75.515,96.495a.774.774,0,0,1-.768.384ZM68.6,87.536l6.271,6.271,50.167-44.024a6.628,6.628,0,1,0-8.574-10.11,1.767,1.767,0,0,1-.512.384Z" transform="translate(-0.194 -6.121)" fill="#ff6c37"/>
    <path id="Path_16" data-name="Path 16" d="M29.827,142.438a1.122,1.122,0,0,0-.64,1.28l2.176,9.214a2.445,2.445,0,0,1-1.664,3.2,2.568,2.568,0,0,1-2.815-.768L12.807,141.415,58.75,95.471l15.869.256,10.75,10.75c-2.56,2.175-18.045,17.149-55.542,35.961Z" transform="translate(0 -16.762)" fill="#fff"/>
    <path id="Path_17" data-name="Path 17" d="M28.8,157.412a3.485,3.485,0,0,1-2.687-1.152l-13.95-13.95a1.236,1.236,0,0,1,0-1.791L58.11,94.575a1.382,1.382,0,0,1,.9-.384l15.869.256a1.162,1.162,0,0,1,.9.384l10.75,10.75a1.453,1.453,0,0,1,.384,1.024.966.966,0,0,1-.512.9l-.9.767c-13.566,11.9-31.994,23.8-54.9,35.194l2.176,9.087a4.036,4.036,0,0,1-1.92,4.351A4.387,4.387,0,0,1,28.8,157.412Zm-14.078-16,13.182,13.053a1.318,1.318,0,1,0,2.3-1.28l-2.176-9.214a2.332,2.332,0,0,1,1.28-2.687c22.652-11.39,40.953-23.164,54.39-34.81l-9.47-9.47-14.717-.256Z" transform="translate(0 -16.762)" fill="#ff6c37"/>
    <path id="Path_18" data-name="Path 18" d="M1.928,152.421l11.006-11.006L29.316,157.8,3.208,156a2.04,2.04,0,0,1-1.792-2.3,1.481,1.481,0,0,1,.512-1.279Z" transform="translate(0 -16.762)" fill="#fff"/>
    <path id="Path_19" data-name="Path 19" d="M29.316,158.947,3.08,157.156a3.354,3.354,0,0,1-3.071-3.712A3.158,3.158,0,0,1,1.033,151.4l11.006-11.006a1.237,1.237,0,0,1,1.792,0l16.381,16.381a1.167,1.167,0,0,1,.256,1.407,1.23,1.23,0,0,1-1.152.768ZM12.934,143.206l-10.11,10.11a.72.72,0,0,0,0,1.152.665.665,0,0,0,.512.256l22.652,1.536Z" transform="translate(0 -16.762)" fill="#ff6c37"/>
    <path id="Path_20" data-name="Path 20" d="M54.271,101.358a1.283,1.283,0,0,1-1.28-1.28,1.162,1.162,0,0,1,.384-.9L65.789,86.768a1.237,1.237,0,0,1,1.792,0l8.063,8.063a1.228,1.228,0,0,1,.384,1.28,1.463,1.463,0,0,1-1.024.9l-20.476,4.352Zm12.414-11.9L58.238,97.9,72.06,94.959Z" transform="translate(-0.11 -10.057)" fill="#ff6c37"/>
    <path id="Path_21" data-name="Path 21" d="M74.619,95.727,60.542,98.8a1.9,1.9,0,0,1-1.792-3.2l7.807-7.807Z" transform="translate(-0.115 -9.951)" fill="#fff"/>
    <path id="Path_22" data-name="Path 22" d="M60.286,100.078a3.168,3.168,0,0,1-3.2-3.2,3.679,3.679,0,0,1,.9-2.3l7.807-7.807a1.237,1.237,0,0,1,1.792,0l8.063,8.063a1.228,1.228,0,0,1,.384,1.28,1.463,1.463,0,0,1-1.024.9l-14.078,3.072Zm6.4-10.622-6.911,6.911a.6.6,0,0,0-.128.768.774.774,0,0,0,.768.384l11.774-2.56Z" transform="translate(-0.115 -9.969)" fill="#ff6c37"/>
    <path id="Path_23" data-name="Path 23" d="M153.069,19.708a1.5,1.5,0,1,0-2.815,1.024c0,.128.128.256.128.384a4.775,4.775,0,0,1-.512,4.863A1.555,1.555,0,0,0,150,28.027a1.441,1.441,0,0,0,2.047-.256,7.5,7.5,0,0,0,1.024-8.063Z" transform="translate(-0.284 0)" fill="#ff6c37"/>
  </g>
</svg>
